<?xml version="1.0" encoding="UTF-8" standalone="no"?>
<!-- Created with Inkscape (http://www.inkscape.org/) -->

<svg
   width="29.197189mm"
   height="29.214333mm"
   viewBox="0 0 29.197189 29.214333"
   version="1.1"
   id="svg52838"
   xmlns:xlink="http://www.w3.org/1999/xlink"
   xmlns="http://www.w3.org/2000/svg"
   xmlns:svg="http://www.w3.org/2000/svg">
  <defs
     id="defs52835">
    <linearGradient
       id="linearGradient352">
      <stop
         style="stop-color:#006ced;stop-opacity:1;"
         offset="0"
         id="stop348" />
      <stop
         style="stop-color:#03e0ff;stop-opacity:1;"
         offset="1"
         id="stop350" />
    </linearGradient>
    <linearGradient
       xlink:href="#linearGradient352"
       id="linearGradient354"
       x1="85.239288"
       y1="86.034569"
       x2="114.23077"
       y2="115.09834"
       gradientUnits="userSpaceOnUse" />
  </defs>
  <g
     id="layer1"
     transform="translate(-85.172579,-86.031583)">
    <path
       id="path49098"
       style="fill:url(#linearGradient354);fill-opacity:1;stroke-width:0.199415"
       d="m 99.779746,86.031586 a 14.607168,14.607168 0 0 0 -14.225082,11.297731 8.7615312,16.187898 66.590721 0 0 16.724016,-0.119571 8.7615312,16.187898 66.590721 0 0 8.74232,-5.880413 14.607168,14.607168 0 0 0 -1.92054,-1.936899 15.80366,15.80366 0 0 1 -10.630154,4.117224 15.80366,15.80366 0 0 1 -3.62608,-0.42181 15.80366,15.80366 0 0 0 10.692854,-5.873013 14.607168,14.607168 0 0 0 -5.757334,-1.183249 z m 12.694804,7.395502 a 8.7615312,16.187898 66.590721 0 1 -3.8477,3.521315 8.7615312,16.187898 66.590721 0 1 5.61985,1.705935 14.607168,14.607168 0 0 0 -1.77215,-5.22725 z m -27.196029,5.541174 a 14.607168,14.607168 0 0 0 -0.105939,1.670488 14.607168,14.607168 0 0 0 1.871855,7.12754 8.7615312,16.187898 66.590721 0 1 5.283336,-5.57155 8.7615312,16.187898 66.590721 0 1 -7.049252,-3.226478 z m 23.294969,0.807397 a 8.7615312,16.187898 66.590721 0 0 -9.903374,2.156181 8.7615312,16.187898 66.590721 0 0 -10.297932,7.81302 14.607168,14.607168 0 0 0 4.341956,3.66971 15.80366,15.80366 0 0 1 14.49577,-7.11157 15.80366,15.80366 0 0 1 3.58013,0.71237 15.80366,15.80366 0 0 0 -13.368224,8.03308 14.607168,14.607168 0 0 0 2.35793,0.19747 14.607168,14.607168 0 0 0 14.590024,-14.15147 8.7615312,16.187898 66.590721 0 0 -5.79628,-1.318791 z" />
  </g>
</svg>
