<?xml version="1.0" encoding="UTF-8" standalone="no"?>
<!-- Created with Inkscape (http://www.inkscape.org/) -->

<svg
   width="210mm"
   height="297mm"
   viewBox="0 0 210 297"
   version="1.1"
   id="svg5"
   inkscape:version="1.2.1 (9c6d41e410, 2022-07-14)"
   sodipodi:docname="logo5t.svg"
   xmlns:inkscape="http://www.inkscape.org/namespaces/inkscape"
   xmlns:sodipodi="http://sodipodi.sourceforge.net/DTD/sodipodi-0.dtd"
   xmlns:xlink="http://www.w3.org/1999/xlink"
   xmlns="http://www.w3.org/2000/svg"
   xmlns:svg="http://www.w3.org/2000/svg">
  <sodipodi:namedview
     id="namedview7"
     pagecolor="#ffffff"
     bordercolor="#999999"
     borderopacity="1"
     inkscape:showpageshadow="0"
     inkscape:pageopacity="0"
     inkscape:pagecheckerboard="0"
     inkscape:deskcolor="#d1d1d1"
     inkscape:document-units="mm"
     showgrid="false"
     inkscape:zoom="2"
     inkscape:cx="328"
     inkscape:cy="354.75"
     inkscape:window-width="1947"
     inkscape:window-height="1368"
     inkscape:window-x="154"
     inkscape:window-y="3"
     inkscape:window-maximized="0"
     inkscape:current-layer="layer1" />
  <defs
     id="defs2">
    <linearGradient
       inkscape:collect="always"
       id="linearGradient14860">
      <stop
         style="stop-color:#006ced;stop-opacity:1;"
         offset="0"
         id="stop14856" />
      <stop
         style="stop-color:#03e0ff;stop-opacity:1;"
         offset="1"
         id="stop14858" />
    </linearGradient>
    <linearGradient
       inkscape:collect="always"
       id="linearGradient14852">
      <stop
         style="stop-color:#006ced;stop-opacity:1;"
         offset="0"
         id="stop14848" />
      <stop
         style="stop-color:#03e0ff;stop-opacity:1;"
         offset="1"
         id="stop14850" />
    </linearGradient>
    <linearGradient
       inkscape:collect="always"
       id="linearGradient14118">
      <stop
         style="stop-color:#006ced;stop-opacity:1;"
         offset="0"
         id="stop14114" />
      <stop
         style="stop-color:#03e0ff;stop-opacity:1;"
         offset="1"
         id="stop14116" />
    </linearGradient>
    <linearGradient
       inkscape:collect="always"
       id="linearGradient5263">
      <stop
         style="stop-color:#006ced;stop-opacity:1;"
         offset="0"
         id="stop5259" />
      <stop
         style="stop-color:#03e0ff;stop-opacity:1;"
         offset="1"
         id="stop5261" />
    </linearGradient>
    <inkscape:path-effect
       effect="offset"
       id="path-effect46166"
       is_visible="true"
       lpeversion="1.2"
       linejoin_type="miter"
       unit="mm"
       offset="0"
       miter_limit="4"
       attempt_force_join="false"
       update_on_knot_move="true" />
    <linearGradient
       id="linearGradient32075"
       inkscape:swatch="solid">
      <stop
         style="stop-color:#46acf2;stop-opacity:1;"
         offset="0"
         id="stop32073" />
    </linearGradient>
    <inkscape:path-effect
       effect="offset"
       id="path-effect23928"
       is_visible="true"
       lpeversion="1.2"
       linejoin_type="miter"
       unit="mm"
       offset="0"
       miter_limit="4"
       attempt_force_join="false"
       update_on_knot_move="true" />
    <linearGradient
       inkscape:collect="always"
       xlink:href="#linearGradient5263"
       id="linearGradient9690"
       x1="21.828125"
       y1="76.464584"
       x2="48.947914"
       y2="105.56875"
       gradientUnits="userSpaceOnUse" />
    <linearGradient
       inkscape:collect="always"
       xlink:href="#linearGradient14118"
       id="linearGradient14120"
       x1="104.7748"
       y1="89.384962"
       x2="121.40945"
       y2="100.62975"
       gradientUnits="userSpaceOnUse" />
    <linearGradient
       inkscape:collect="always"
       xlink:href="#linearGradient14852"
       id="linearGradient14854"
       x1="122.22303"
       y1="89.201016"
       x2="135.68784"
       y2="99.652061"
       gradientUnits="userSpaceOnUse" />
    <linearGradient
       inkscape:collect="always"
       xlink:href="#linearGradient14860"
       id="linearGradient14862"
       x1="137.21403"
       y1="89.201011"
       x2="155.31143"
       y2="99.916634"
       gradientUnits="userSpaceOnUse" />
  </defs>
  <g
     inkscape:label="Calque 1"
     inkscape:groupmode="layer"
     id="layer1">
    <path
       id="path7522"
       style="font-size:3.175px;font-family:Fingerpop;-inkscape-font-specification:Fingerpop;white-space:pre;inline-size:16.1946;opacity:1;fill:#000000;fill-opacity:1;stroke-width:2.46422"
       d="m 41.732853,78.232951 v 21.968169 h 2.614311 V 81.272042 l 5.807397,12.880351 h 1.667599 l 5.849772,-12.880351 v 18.929078 h 0.160714 l 2.637565,-7.565431 V 78.232951 H 56.584143 L 51.158118,90.463729 45.548124,78.232951 Z"
       inkscape:path-effect="#path-effect46166"
       inkscape:original-d="m 41.732853,78.232951 v 21.968169 h 2.614311 V 81.272042 l 5.807397,12.880351 h 1.667599 l 5.849772,-12.880351 v 18.929078 h 0.160714 l 2.637565,-7.565431 V 78.232951 H 56.584143 L 51.158118,90.463729 45.548124,78.232951 Z"
       inkscape:export-filename="logodegra.svg"
       inkscape:export-xdpi="96"
       inkscape:export-ydpi="96" />
    <path
       d="m 78.157499,100.18517 h -2.981558 l -2.06306,-6.1228 h -9.100106 l -2.063069,6.1228 H 59.109455 L 66.76824,78.216852 h 3.730474 z M 72.250914,91.554233 68.562823,80.769252 64.860614,91.554233 Z"
       id="path7524"
       style="font-size:3.175px;font-family:Fingerpop;-inkscape-font-specification:Fingerpop;white-space:pre;inline-size:16.1946;opacity:1;fill:#000000;fill-opacity:1;stroke-width:2.46422" />
    <path
       id="path7526"
       style="font-size:3.175px;font-family:Fingerpop;-inkscape-font-specification:Fingerpop;white-space:pre;inline-size:16.1946;opacity:1;fill:#000000;fill-opacity:1;stroke-width:2.46422"
       d="m 76.931738,78.216931 v 14.805815 l 2.497522,7.162354 h 0.30024 v -7.450709 l 2.091346,-2.331124 8.323006,9.781833 h 3.631303 L 83.940096,88.544466 93.336938,78.216931 H 89.945931 L 79.7295,89.680314 V 78.216931 Z" />
    <path
       id="path7528"
       style="font-size:3.175px;font-family:Fingerpop;-inkscape-font-specification:Fingerpop;white-space:pre;inline-size:16.1946;opacity:1;fill:#000000;fill-opacity:1;stroke-width:2.46422"
       d="m 93.676969,78.216931 v 18.908407 l 2.585889,3.059762 h 7.112232 v -2.596741 h -6.900359 v -8.158676 h 9.104359 c -0.11085,-0.105946 -0.21805,-0.215152 -0.32092,-0.328145 l -0.004,-0.0057 -0.006,-0.0062 c -0.60034,-0.673001 -1.03514,-1.427524 -1.32033,-2.25671 h -7.452779 v -6.019271 h 7.789189 c 0.47431,-0.92386 1.16989,-1.743787 2.08566,-2.463932 0.0569,-0.0451 0.11393,-0.08921 0.17157,-0.132809 z" />
    <path
       d="m 121.54173,94.257194 q 0,1.326696 -0.5988,2.622899 -0.5842,1.2962 -1.6504,2.195915 -1.16843,0.975972 -2.7312,1.524952 -1.54818,0.54897 -3.73897,0.54897 -2.35147,0 -4.23556,-0.4575 -1.86949,-0.45748 -3.812,-1.357189 v -3.781854 h 0.20444 q 1.65042,1.433442 3.81199,2.211162 2.16159,0.777668 4.06029,0.777668 2.68738,0 4.17712,-1.052204 1.50436,-1.052208 1.50436,-2.805895 0,-1.509694 -0.71562,-2.226419 -0.70102,-0.716686 -2.14698,-1.113205 -1.0954,-0.305029 -2.38067,-0.503235 -1.27068,-0.198203 -2.70201,-0.503233 -2.89185,-0.640455 -4.29396,-2.180669 -1.38751,-1.555444 -1.38751,-4.041104 0,-2.851644 2.30765,-4.666327 2.30765,-1.829932 5.85674,-1.829932 2.29305,0 4.20634,0.457495 1.9133,0.457496 3.38844,1.128462 v 3.568359 h -0.20443 q -1.24146,-1.097956 -3.2716,-1.814682 -2.01554,-0.731932 -4.13332,-0.731932 -2.32225,0 -3.73897,1.006467 -1.40212,1.00646 -1.40212,2.592396 0,1.418205 0.70103,2.226419 0.70101,0.808264 2.4683,1.235207 0.93475,0.21345 2.65818,0.518481 1.72342,0.305029 2.92106,0.625207 2.42448,0.670945 3.65134,2.028174 1.22685,1.357198 1.22685,3.797108 z"
       id="path7530"
       style="font-size:3.175px;font-family:Fingerpop;-inkscape-font-specification:Fingerpop;white-space:pre;inline-size:16.1946;opacity:1;fill:url(#linearGradient14120);fill-opacity:1;stroke-width:2.54701"
       inkscape:path-effect="#path-effect23928"
       inkscape:original-d="m 121.54173,94.257194 q 0,1.326696 -0.5988,2.622899 -0.5842,1.2962 -1.6504,2.195915 -1.16843,0.975972 -2.7312,1.524952 -1.54818,0.54897 -3.73897,0.54897 -2.35147,0 -4.23556,-0.4575 -1.86949,-0.45748 -3.812,-1.357189 v -3.781854 h 0.20444 q 1.65042,1.433442 3.81199,2.211162 2.16159,0.777668 4.06029,0.777668 2.68738,0 4.17712,-1.052204 1.50436,-1.052208 1.50436,-2.805895 0,-1.509694 -0.71562,-2.226419 -0.70102,-0.716686 -2.14698,-1.113205 -1.0954,-0.305029 -2.38067,-0.503235 -1.27068,-0.198203 -2.70201,-0.503233 -2.89185,-0.640455 -4.29396,-2.180669 -1.38751,-1.555444 -1.38751,-4.041104 0,-2.851644 2.30765,-4.666327 2.30765,-1.829932 5.85674,-1.829932 2.29305,0 4.20634,0.457495 1.9133,0.457496 3.38844,1.128462 v 3.568359 h -0.20443 q -1.24146,-1.097956 -3.2716,-1.814682 -2.01554,-0.731932 -4.13332,-0.731932 -2.32225,0 -3.73897,1.006467 -1.40212,1.00646 -1.40212,2.592396 0,1.418205 0.70103,2.226419 0.70101,0.808264 2.4683,1.235207 0.93475,0.21345 2.65818,0.518481 1.72342,0.305029 2.92106,0.625207 2.42448,0.670945 3.65134,2.028174 1.22685,1.357198 1.22685,3.797108 z" />
    <path
       id="path7532"
       style="font-size:3.175px;font-family:Fingerpop;-inkscape-font-specification:Fingerpop;white-space:pre;inline-size:16.1946;opacity:1;fill:url(#linearGradient14854);fill-opacity:1;stroke-width:2.46422"
       d="m 122.22303,78.216931 v 12.587346 c 0.49685,1.004012 0.7183,2.170324 0.7183,3.453535 0,1.098692 -0.24466,2.154287 -0.7183,3.187403 v 2.739885 h 13.86169 v -2.596741 h -11.06393 v -8.158676 h 11.06393 v -2.59674 h -11.06393 v -6.019271 h 11.06393 v -2.596741 z" />
    <path
       d="m 155.04684,80.813514 h -7.51748 V 100.18517 H 144.7315 V 80.813514 h -7.51747 v -2.596662 h 17.83281 z"
       id="path7534"
       style="font-size:3.175px;font-family:Fingerpop;-inkscape-font-specification:Fingerpop;white-space:pre;inline-size:16.1946;opacity:1;fill:url(#linearGradient14862);fill-opacity:1;stroke-width:2.46422" />
    <g
       id="g8176"
       style="fill-opacity:1;fill:url(#linearGradient9690)">
      <g
         id="g8172"
         style="fill-opacity:1;fill:url(#linearGradient9690)">
        <path
           id="circle40965"
           style="opacity:1;fill:url(#linearGradient9690);fill-opacity:1;stroke-width:0.230984"
           d="m 33.256885,71.654024 a 16.919632,16.919632 0 0 0 -16.477031,13.086023 10.148571,18.750607 66.590721 0 0 19.371945,-0.138493 10.148571,18.750607 66.590721 0 0 4.180106,-2.1177 v -4.32015 a 18.30554,18.30554 0 0 1 -8.591724,2.152324 18.30554,18.30554 0 0 1 -4.20026,-0.488859 18.30554,18.30554 0 0 0 12.385807,-6.802686 16.919632,16.919632 0 0 0 -6.668843,-1.370459 z m 10.79624,3.892786 a 18.30554,18.30554 0 0 1 -1.583883,1.285193 h 2.952275 A 16.919632,16.919632 0 0 0 44.053125,75.54681 Z m 4.193542,5.208468 0.715202,1.559077 a 16.919632,16.919632 0 0 0 -0.715202,-1.559077 z m -31.78669,5.883361 a 16.919632,16.919632 0 0 0 -0.122473,1.934766 16.919632,16.919632 0 0 0 2.168343,8.256344 10.148571,18.750607 66.590721 0 1 6.119523,-6.45387 10.148571,18.750607 66.590721 0 1 -8.165393,-3.73724 z m 23.871928,1.133781 a 10.148571,18.750607 66.590721 0 0 -8.360213,2.299085 10.148571,18.750607 66.590721 0 0 -11.927954,9.050093 16.919632,16.919632 0 0 0 5.02915,4.250382 18.30554,18.30554 0 0 1 15.259017,-8.289412 z m 5.416207,0.01085 v 8.098214 a 18.30554,18.30554 0 0 1 0.262516,0.07803 18.30554,18.30554 0 0 0 -0.262516,0.01395 v 3.989937 a 16.919632,16.919632 0 0 0 3.196187,-5.089095 z m -5.416207,9.234062 a 18.30554,18.30554 0 0 0 -9.80612,8.247048 16.919632,16.919632 0 0 0 2.7311,0.22892 16.919632,16.919632 0 0 0 10.779187,-3.89175 h -3.704167 z" />
      </g>
    </g>
    <path
       style="opacity:0;fill:#000000;stroke-width:0.264583"
       d="M 12.7,70.379166 H 157.95625 V 109.27292 L 13.229167,108.74375 Z"
       id="path861" />
  </g>
</svg>
